<?xml version="1.0" encoding="utf-8"?>
<!-- Generator: Adobe Illustrator 21.0.2, SVG Export Plug-In . SVG Version: 6.00 Build 0)  -->
<svg version="1.1" id="Layer_1" xmlns="http://www.w3.org/2000/svg" xmlns:xlink="http://www.w3.org/1999/xlink" x="0px" y="0px"
	 viewBox="0 0 310.3 312.7" style="enable-background:new 0 0 310.3 312.7;" xml:space="preserve">
<style type="text/css">
	.st0{fill:none;stroke:#000000;stroke-miterlimit:10;}
	.st1{fill:none;stroke:#3E603B;stroke-width:5;stroke-linecap:round;stroke-miterlimit:10;}
	.st2{display:none;}
	.st3{fill:none;stroke:#3E603B;stroke-width:5;stroke-miterlimit:10;}
</style>
<path id="XMLID_2_" class="st0" d="M286-62.7"/>
<path id="XMLID_8_" class="st1" d="M91,232.4c8.2-29.6,20.9-56.7,38.8-83.7c16.8-26.5,35.7-49.5,60.4-68.1"/>
<path id="XMLID_1_" class="st1" d="M190.5,81.8c0,36.6,0,114.1,0,150.6"/>
<path id="XMLID_7_" class="st2" d="M205.6,170.2c-40-23.2-81.6-41.4-126.9-55.4c-2.2-0.7-4.6,0.7-5.1,3c-1.9,9-3.4,18.2-4.9,27.1
	c-0.3,1.7-0.6,3.3-0.9,5c-0.4,2.2,1.1,4.3,3.3,4.6c85.2,13.6,156.5,40.8,213.1,81.4c4.1,2.9,8.8-2.9,5-6.3
	C262.6,206.4,233.5,187.2,205.6,170.2z"/>
<line id="XMLID_3_" class="st1" x1="190.5" y1="232.3" x2="144.9" y2="186.1"/>
<circle id="XMLID_71_" class="st3" cx="154.9" cy="156.4" r="150"/>
</svg>
