<?xml version="1.0" encoding="utf-8"?>
<!-- Generator: Adobe Illustrator 21.0.2, SVG Export Plug-In . SVG Version: 6.00 Build 0)  -->
<svg version="1.1" id="Layer_1" xmlns="http://www.w3.org/2000/svg" xmlns:xlink="http://www.w3.org/1999/xlink" x="0px" y="0px"
	 viewBox="0 0 2000 800" style="enable-background:new 0 0 2000 800;" xml:space="preserve">
<style type="text/css">
	.st0{fill:none;stroke:#000000;stroke-width:5;stroke-miterlimit:10;}
	.st1{fill:#E7E3D8;}
	.st2{display:none;}
	.st3{display:inline;fill:none;stroke:#3E623D;stroke-width:5;stroke-miterlimit:10;}
	.st4{display:inline;fill:none;stroke:#3E623D;stroke-width:10;stroke-miterlimit:10;}
	.st5{display:inline;fill:none;stroke:#3E623D;stroke-width:3;stroke-miterlimit:10;}
	.st6{display:inline;fill:none;stroke:#3E623D;stroke-width:8;stroke-miterlimit:10;}
	.st7{display:inline;fill:#FFC96E;}
	.st8{display:inline;fill:#3E613C;}
	.st9{display:inline;fill:#86AF48;}
	.st10{display:inline;fill:#B7DB9F;}
	.st11{fill:#B7DB9F;}
	.st12{fill:#D3E8CB;}
	.st13{fill:#3E613C;}
	.st14{fill:#86AF48;}
	.st15{fill:#FFC96E;}
</style>
<path class="st0" d="M704.9,780.8"/>
<g>
	<path class="st1" d="M700.2,799.4H545.7V64c0-12.4,10.1-22.5,22.5-22.5h109.5c12.4,0,22.5,10.1,22.5,22.5V799.4z"/>
	<path class="st1" d="M187.7,219.9v-89.5c0-7.7-6.2-13.9-13.9-13.9h-6.9c-7.7,0-13.9-6.2-13.9-13.9V93c0-7.7-6.2-13.9-13.9-13.9
		h-19.9c-7.7,0-13.9,6.2-13.9,13.9v9.6c0,7.7-6.2,13.9-13.9,13.9h-6.9c-7.7,0-13.9,6.2-13.9,13.9v89.5c0,7.7-6.2,13.9-13.9,13.9h0
		c-7.7,0-13.9,6.2-13.9,13.9v551.6h172.5V247.6c0-7.7-6.2-13.9-13.9-13.9h0C193.9,233.7,187.7,227.5,187.7,219.9z"/>
	<path class="st1" d="M1554.7,172.5v-71.3c0-9.4-7.6-16.9-16.9-16.9h-84c-9.4,0-16.9,7.6-16.9,16.9v71.3c0,9.4-7.6,16.9-16.9,16.9h0
		c-9.4,0-16.9,7.6-16.9,16.9v587.7h185.7V206.4c0-9.4-7.6-16.9-16.9-16.9h0C1562.3,189.5,1554.7,181.9,1554.7,172.5z"/>
	<path class="st1" d="M440.6,343.2v-24.6c0-13.2-10.7-23.9-23.9-23.9h-101c-13.2,0-23.9,10.7-23.9,23.9v24.6
		c0,13.2-10.7,23.9-23.9,23.9h0c-13.2,0-23.9,10.7-23.9,23.9v404.4h244.5V391c0-13.2-10.7-23.9-23.9-23.9h0
		C451.3,367.1,440.6,356.4,440.6,343.2z"/>
	<path class="st1" d="M1223.8,301.2v-60.4c0-5-4.1-9.1-9.1-9.1h0c-5,0-9.1-4.1-9.1-9.1v-19.6c0-5-4.1-9.1-9.1-9.1H1063
		c-5,0-9.1,4.1-9.1,9.1v19.6c0,5-4.1,9.1-9.1,9.1l0,0c-5,0-9.1,4.1-9.1,9.1v60.4c0,5-4.1,9.1-9.1,9.1h-18.4c-5,0-9.1,4.1-9.1,9.1
		v480.1h261V319.3c0-5-4.1-9.1-9.1-9.1h-18.4C1227.8,310.2,1223.8,306.2,1223.8,301.2z"/>
	<path class="st1" d="M1779.4,796.9h-154.5V299.7c0-12.4,10.1-22.5,22.5-22.5h109.5c12.4,0,22.5,10.1,22.5,22.5V796.9z"/>
	<path class="st1" d="M1960.6,318.2v-74.1c0-6.3-5.8-11.5-13-11.5h-6.5c-7.2,0-13-5.1-13-11.5v-8c0-6.3-5.8-11.5-13-11.5h-18.6
		c-7.2,0-13,5.1-13,11.5v8c0,6.3-5.8,11.5-13,11.5h-6.5c-7.2,0-13,5.1-13,11.5v74.1c0,6.3-5.8,11.5-13,11.5l0,0
		c-7.2,0-13,5.1-13,11.5v456.5h161.5V341.2c0-6.3-5.8-11.5-13-11.5h0C1966.4,329.7,1960.6,324.5,1960.6,318.2z"/>
</g>
<g class="st2">
	<path class="st3" d="M306.6,426.9"/>
	<path class="st4" d="M147.7,798.9c59-323.5,97-411.5,124.2-411.7c57.7-0.3,63.5,261.6,119.2,272.6c42.4,8.4,54.4-101.6,104.9-98.2
		c35.7,2.5,70.4,139.5,91.3,237.2"/>
	<line class="st5" x1="271.9" y1="387.3" x2="269.5" y2="798.9"/>
	<line class="st5" x1="306.6" y1="429.9" x2="304.5" y2="799"/>
	<line class="st5" x1="341.1" y1="553.5" x2="340" y2="798.9"/>
	<line class="st5" x1="375" y1="648.7" x2="374.4" y2="798.9"/>
	<line class="st5" x1="411.7" y1="654" x2="411.1" y2="798.9"/>
	<line class="st5" x1="446.1" y1="602.7" x2="445.2" y2="798.9"/>
	<line class="st5" x1="481.5" y1="564" x2="480.4" y2="798.8"/>
	<line class="st5" x1="517.5" y1="578.4" x2="516.5" y2="798.8"/>
	<line class="st5" x1="553.3" y1="663.6" x2="552.6" y2="798.7"/>
	<line class="st5" x1="239.5" y1="427.9" x2="237.3" y2="799.1"/>
	<line class="st5" x1="205" y1="533.9" x2="203.7" y2="799.1"/>
	<line class="st5" x1="174.2" y1="662.2" x2="173.6" y2="799.2"/>
</g>
<g class="st2">
	<polygon class="st3" points="800.5,793.4 680.5,793.4 740.5,620.6 800.5,447.7 860.5,620.6 920.5,793.4 	"/>
	<polygon class="st3" points="800.5,793.4 760.5,793.4 780.5,620.6 800.5,447.7 820.5,620.6 840.5,793.4 	"/>
	<g>
		<circle class="st3" cx="799.5" cy="449.8" r="62.6"/>
		<circle class="st6" cx="799.5" cy="449.8" r="181.7"/>
		<circle class="st6" cx="799.5" cy="449.8" r="210.5"/>
		<line class="st3" x1="799.5" y1="449.8" x2="1076.3" y2="449.8"/>
		<line class="st3" x1="522.7" y1="450" x2="799.5" y2="450"/>
		<line class="st3" x1="603.8" y1="645" x2="799.5" y2="449.2"/>
		<line class="st3" x1="799.5" y1="450" x2="995.2" y2="254.3"/>
		<line class="st3" x1="603.8" y1="254.3" x2="799.5" y2="450"/>
		<line class="st3" x1="799.5" y1="450" x2="995.2" y2="645.7"/>
		<line class="st3" x1="799.5" y1="173.2" x2="799.5" y2="450"/>
		<line class="st5" x1="721.9" y1="254.1" x2="799.5" y2="449.8"/>
		<line class="st5" x1="603.4" y1="374.4" x2="799.9" y2="450"/>
		<line class="st5" x1="799.4" y1="449.8" x2="995.9" y2="525.4"/>
		<line class="st5" x1="603.6" y1="527.3" x2="799.7" y2="450.5"/>
		<line class="st5" x1="799.3" y1="450.7" x2="995.4" y2="374"/>
		<line class="st5" x1="799.5" y1="450" x2="881.4" y2="256"/>
		<line class="st5" x1="717.3" y1="645.4" x2="799.1" y2="451.4"/>
		<line class="st5" x1="799.8" y1="450.5" x2="877.4" y2="646.3"/>
		<line class="st3" x1="800.5" y1="726.8" x2="800.5" y2="450"/>
		<circle class="st7" cx="799.5" cy="449.8" r="35.2"/>
		<path class="st8" d="M533.3,476.6H520c-11,0-20-9-20-20v-13.3c0-11,9-20,20-20h13.3c11,0,20,9,20,20v13.3
			C553.3,467.6,544.3,476.6,533.3,476.6z"/>
		<path class="st8" d="M612.1,669.9h-13.3c-11,0-20-9-20-20v-13.3c0-11,9-20,20-20h13.3c11,0,20,9,20,20v13.3
			C632.1,660.9,623.1,669.9,612.1,669.9z"/>
		<path class="st8" d="M1001.5,672h-13.3c-11,0-20-9-20-20v-13.3c0-11,9-20,20-20h13.3c11,0,20,9,20,20V652
			C1021.5,663,1012.5,672,1001.5,672z"/>
		<path class="st8" d="M1080,476.5h-13.3c-11,0-20-9-20-20v-13.3c0-11,9-20,20-20h13.3c11,0,20,9,20,20v13.3
			C1100,467.5,1091,476.5,1080,476.5z"/>
		<path class="st8" d="M999.9,282.2h-13.3c-11,0-20-9-20-20v-13.3c0-11,9-20,20-20h13.3c11,0,20,9,20,20v13.3
			C1019.9,273.2,1010.9,282.2,999.9,282.2z"/>
		<path class="st8" d="M806.2,203.8h-13.3c-11,0-20-9-20-20v-13.3c0-11,9-20,20-20h13.3c11,0,20,9,20,20v13.3
			C826.2,194.8,817.2,203.8,806.2,203.8z"/>
		<path class="st8" d="M793.8,696.2h13.3c11,0,20,9,20,20v13.3c0,11-9,20-20,20h-13.3c-11,0-20-9-20-20v-13.3
			C773.8,705.2,782.8,696.2,793.8,696.2z"/>
		<path class="st8" d="M612.1,280.5h-13.3c-11,0-20-9-20-20v-13.3c0-11,9-20,20-20h13.3c11,0,20,9,20,20v13.3
			C632.1,271.5,623.1,280.5,612.1,280.5z"/>
	</g>
</g>
<g class="st2">
	<rect x="1269.4" y="639.9" class="st3" width="240" height="155.2"/>
	<rect x="1321.4" y="639.9" class="st3" width="22.8" height="134.1"/>
	<rect x="1432.3" y="639.9" class="st3" width="22.8" height="134.1"/>
	<polygon class="st3" points="1389.4,639.2 1213.2,639.2 1301.3,596.3 1389.4,553.4 1477.5,596.3 1565.7,639.2 	"/>
	<polygon class="st3" points="1389.4,639.2 1289.4,639.2 1339.4,596.3 1389.4,553.4 1439.4,596.3 1489.4,639.2 	"/>
	<polygon class="st3" points="1389.4,639.2 1360.4,639.2 1374.9,596.3 1389.4,553.4 1403.9,596.3 1418.4,639.2 	"/>
	<rect x="1269.4" y="639.9" class="st3" width="240" height="134.1"/>
	<rect x="1094.2" y="684.5" class="st3" width="175.2" height="110.6"/>
	<rect x="1094.2" y="710.6" class="st3" width="175.2" height="84.5"/>
	<rect x="1094.2" y="684.6" class="st3" width="32" height="26"/>
	<rect x="1236.2" y="684.6" class="st3" width="32" height="26"/>
	<rect x="1142.6" y="684.5" class="st3" width="32" height="26"/>
	<rect x="1189.2" y="684.5" class="st3" width="32" height="26"/>
</g>
<g class="st2">
	<path class="st9" d="M320.5,801.2H80.2c0-56.8,53.8-102.8,120.2-102.8C266.7,698.5,320.5,744.5,320.5,801.2z"/>
	<path class="st10" d="M320.5,800.2H200.4V697.5C266.7,697.5,320.5,743.5,320.5,800.2z"/>
</g>
<g class="st2">
	<path class="st9" d="M700.1,798.9H500c0-35.7,44.8-64.6,100.1-64.6C655.3,734.3,700.1,763.2,700.1,798.9z"/>
	<path class="st10" d="M700.1,798.3H600.1v-64.6C655.3,733.7,700.1,762.6,700.1,798.3z"/>
</g>
<g class="st2">
	<path class="st9" d="M1211.2,799.2h-181.9c0-36.8,40.7-66.6,91-66.6C1170.5,732.6,1211.2,762.4,1211.2,799.2z"/>
	<path class="st10" d="M1211.2,798.6h-90.9v-66.6C1170.5,731.9,1211.2,761.8,1211.2,798.6z"/>
</g>
<g class="st2">
	<path class="st9" d="M1854.6,797.7h-252.3c0-51.5,56.5-93.3,126.2-93.3C1798.2,704.3,1854.6,746.1,1854.6,797.7z"/>
	<path class="st10" d="M1854.6,796.7h-126.2v-93.3C1798.2,703.4,1854.6,745.2,1854.6,796.7z"/>
</g>
<g class="st2">
	<path class="st9" d="M1645,799.8h-158.6c0-37.5,35.5-67.8,79.3-67.8C1609.5,731.9,1645,762.3,1645,799.8z"/>
	<path class="st10" d="M1645,799.1h-79.3v-67.8C1609.5,731.3,1645,761.6,1645,799.1z"/>
</g>
<rect x="18.4" y="-278.6" class="st1" width="69" height="69"/>
<rect x="18.4" y="-183.2" class="st11" width="66.7" height="66.7"/>
<rect x="19.5" y="-90" class="st12" width="66.7" height="66.7"/>
<rect x="145.4" y="-279.1" class="st13" width="70.1" height="70.1"/>
<rect x="145.4" y="-184.8" class="st14" width="70.1" height="70.1"/>
<rect x="145.4" y="-90.6" class="st15" width="70.1" height="70.1"/>
</svg>
