<?xml version="1.0" encoding="utf-8"?>
<!-- Generator: Adobe Illustrator 21.0.2, SVG Export Plug-In . SVG Version: 6.00 Build 0)  -->
<svg version="1.1" id="Layer_1" xmlns="http://www.w3.org/2000/svg" xmlns:xlink="http://www.w3.org/1999/xlink" x="0px" y="0px"
	 viewBox="0 0 600 599" style="enable-background:new 0 0 600 599;" xml:space="preserve">
<style type="text/css">
	.st0{display:none;fill:none;stroke:#000000;stroke-width:5;stroke-miterlimit:10;}
	.st1{display:none;}
	.st2{display:inline;fill:#E7E3D8;}
	.st3{display:inline;fill:none;stroke:#3E623D;stroke-width:5;stroke-miterlimit:10;}
	.st4{display:inline;fill:none;stroke:#3E623D;stroke-width:10;stroke-miterlimit:10;}
	.st5{display:inline;fill:none;stroke:#3E623D;stroke-width:3;stroke-miterlimit:10;}
	.st6{display:none;fill:none;stroke:#3E623D;stroke-width:5;stroke-miterlimit:10;}
	.st7{fill:none;stroke:#3E623D;stroke-width:5;stroke-miterlimit:10;}
	.st8{fill:none;stroke:#3E623D;stroke-width:8;stroke-miterlimit:10;}
	.st9{fill:none;stroke:#3E623D;stroke-width:3;stroke-miterlimit:10;}
	.st10{fill:#FFC96E;}
	.st11{fill:#3E613C;}
	.st12{display:inline;fill:#86AF48;}
	.st13{display:inline;fill:#B7DB9F;}
	.st14{fill:#E7E3D8;}
	.st15{fill:#B7DB9F;}
	.st16{fill:#D3E8CB;}
	.st17{fill:#86AF48;}
</style>
<path class="st0" d="M204.9,630.3"/>
<g class="st1">
	<path class="st2" d="M200.2,648.9H45.7V-86.5c0-12.4,10.1-22.5,22.5-22.5h109.5c12.4,0,22.5,10.1,22.5,22.5V648.9z"/>
	<path class="st2" d="M-312.3,69.4v-89.5c0-7.7-6.2-13.9-13.9-13.9h-6.9c-7.7,0-13.9-6.2-13.9-13.9v-9.6c0-7.7-6.2-13.9-13.9-13.9
		h-19.9c-7.7,0-13.9,6.2-13.9,13.9v9.6c0,7.7-6.2,13.9-13.9,13.9h-6.9c-7.7,0-13.9,6.2-13.9,13.9v89.5c0,7.7-6.2,13.9-13.9,13.9l0,0
		c-7.7,0-13.9,6.2-13.9,13.9v551.6h172.5V97.1c0-7.7-6.2-13.9-13.9-13.9l0,0C-306.1,83.2-312.3,77-312.3,69.4z"/>
	<path class="st2" d="M1054.7,22v-71.3c0-9.4-7.6-16.9-16.9-16.9h-84c-9.4,0-16.9,7.6-16.9,16.9V22c0,9.4-7.6,16.9-16.9,16.9l0,0
		c-9.4,0-16.9,7.6-16.9,16.9v587.7h185.7V55.9c0-9.4-7.6-16.9-16.9-16.9l0,0C1062.3,39,1054.7,31.4,1054.7,22z"/>
	<path class="st2" d="M-59.4,192.7v-24.6c0-13.2-10.7-23.9-23.9-23.9h-101c-13.2,0-23.9,10.7-23.9,23.9v24.6
		c0,13.2-10.7,23.9-23.9,23.9l0,0c-13.2,0-23.9,10.7-23.9,23.9v404.4h244.5V240.5c0-13.2-10.7-23.9-23.9-23.9l0,0
		C-48.7,216.6-59.4,205.9-59.4,192.7z"/>
	<path class="st2" d="M723.8,150.7V90.3c0-5-4.1-9.1-9.1-9.1l0,0c-5,0-9.1-4.1-9.1-9.1V52.5c0-5-4.1-9.1-9.1-9.1H563
		c-5,0-9.1,4.1-9.1,9.1v19.6c0,5-4.1,9.1-9.1,9.1l0,0c-5,0-9.1,4.1-9.1,9.1v60.4c0,5-4.1,9.1-9.1,9.1h-18.4c-5,0-9.1,4.1-9.1,9.1
		V649h261V168.8c0-5-4.1-9.1-9.1-9.1h-18.4C727.8,159.7,723.8,155.7,723.8,150.7z"/>
	<path class="st2" d="M1279.4,646.4h-154.5V149.2c0-12.4,10.1-22.5,22.5-22.5h109.5c12.4,0,22.5,10.1,22.5,22.5V646.4z"/>
	<path class="st2" d="M1460.6,167.7V93.6c0-6.3-5.8-11.5-13-11.5h-6.5c-7.2,0-13-5.1-13-11.5v-8c0-6.3-5.8-11.5-13-11.5h-18.6
		c-7.2,0-13,5.1-13,11.5v8c0,6.3-5.8,11.5-13,11.5h-6.5c-7.2,0-13,5.1-13,11.5v74.1c0,6.3-5.8,11.5-13,11.5l0,0
		c-7.2,0-13,5.1-13,11.5v456.5h161.5V190.7c0-6.3-5.8-11.5-13-11.5l0,0C1466.4,179.2,1460.6,174,1460.6,167.7z"/>
</g>
<g class="st1">
	<path class="st3" d="M-193.4,276.4"/>
	<path class="st4" d="M-352.3,648.4c59-323.5,97-411.5,124.2-411.7c57.7-0.3,63.5,261.6,119.2,272.6c42.4,8.4,54.4-101.6,104.9-98.2
		c35.7,2.5,70.4,139.5,91.3,237.2"/>
	<line class="st5" x1="-228.1" y1="236.8" x2="-230.5" y2="648.4"/>
	<line class="st5" x1="-193.4" y1="279.4" x2="-195.5" y2="648.5"/>
	<line class="st5" x1="-158.9" y1="403" x2="-160" y2="648.4"/>
	<line class="st5" x1="-125" y1="498.2" x2="-125.6" y2="648.4"/>
	<line class="st5" x1="-88.3" y1="503.5" x2="-88.9" y2="648.4"/>
	<line class="st5" x1="-53.9" y1="452.2" x2="-54.8" y2="648.4"/>
	<line class="st5" x1="-18.5" y1="413.5" x2="-19.6" y2="648.3"/>
	<line class="st5" x1="17.5" y1="427.9" x2="16.5" y2="648.3"/>
	<line class="st5" x1="53.3" y1="513.1" x2="52.6" y2="648.2"/>
	<line class="st5" x1="-260.5" y1="277.4" x2="-262.7" y2="648.6"/>
	<line class="st5" x1="-295" y1="383.4" x2="-296.3" y2="648.6"/>
	<line class="st5" x1="-325.8" y1="511.7" x2="-326.4" y2="648.7"/>
</g>
<g>
	<polygon class="st6" points="300.5,642.9 180.5,642.9 240.5,470.1 300.5,297.2 360.5,470.1 420.5,642.9 	"/>
	<polygon class="st6" points="300.5,642.9 260.5,642.9 280.5,470.1 300.5,297.2 320.5,470.1 340.5,642.9 	"/>
	<g>
		<circle class="st7" cx="299.5" cy="299.3" r="62.6"/>
		<circle class="st8" cx="299.5" cy="299.3" r="181.7"/>
		<circle class="st8" cx="299.5" cy="299.3" r="210.5"/>
		<line class="st7" x1="299.5" y1="299.3" x2="576.3" y2="299.3"/>
		<line class="st7" x1="22.7" y1="299.5" x2="299.5" y2="299.5"/>
		<line class="st7" x1="103.8" y1="494.5" x2="299.5" y2="298.7"/>
		<line class="st7" x1="299.5" y1="299.5" x2="495.2" y2="103.8"/>
		<line class="st7" x1="103.8" y1="103.8" x2="299.5" y2="299.5"/>
		<line class="st7" x1="299.5" y1="299.5" x2="495.2" y2="495.2"/>
		<line class="st7" x1="299.5" y1="22.7" x2="299.5" y2="299.5"/>
		<line class="st9" x1="221.9" y1="103.6" x2="299.5" y2="299.3"/>
		<line class="st9" x1="103.4" y1="223.9" x2="299.9" y2="299.5"/>
		<line class="st9" x1="299.4" y1="299.3" x2="495.9" y2="374.9"/>
		<line class="st9" x1="103.6" y1="376.8" x2="299.7" y2="300"/>
		<line class="st9" x1="299.3" y1="300.2" x2="495.4" y2="223.5"/>
		<line class="st9" x1="299.5" y1="299.5" x2="381.4" y2="105.5"/>
		<line class="st9" x1="217.3" y1="494.9" x2="299.1" y2="300.9"/>
		<line class="st9" x1="299.8" y1="300" x2="377.4" y2="495.8"/>
		<line class="st7" x1="300.5" y1="576.3" x2="300.5" y2="299.5"/>
		<circle class="st10" cx="299.5" cy="299.3" r="35.2"/>
		<path class="st11" d="M33.3,326.1H20c-11,0-20-9-20-20v-13.3c0-11,9-20,20-20h13.3c11,0,20,9,20,20v13.3
			C53.3,317.1,44.3,326.1,33.3,326.1z"/>
		<path class="st11" d="M112.1,519.4H98.8c-11,0-20-9-20-20v-13.3c0-11,9-20,20-20h13.3c11,0,20,9,20,20v13.3
			C132.1,510.4,123.1,519.4,112.1,519.4z"/>
		<path class="st11" d="M501.5,521.5h-13.3c-11,0-20-9-20-20v-13.3c0-11,9-20,20-20h13.3c11,0,20,9,20,20v13.3
			C521.5,512.5,512.5,521.5,501.5,521.5z"/>
		<path class="st11" d="M580,326h-13.3c-11,0-20-9-20-20v-13.3c0-11,9-20,20-20H580c11,0,20,9,20,20V306C600,317,591,326,580,326z"
			/>
		<path class="st11" d="M499.9,131.7h-13.3c-11,0-20-9-20-20V98.4c0-11,9-20,20-20h13.3c11,0,20,9,20,20v13.3
			C519.9,122.7,510.9,131.7,499.9,131.7z"/>
		<path class="st11" d="M306.2,53.3h-13.3c-11,0-20-9-20-20V20c0-11,9-20,20-20h13.3c11,0,20,9,20,20v13.3
			C326.2,44.3,317.2,53.3,306.2,53.3z"/>
		<path class="st11" d="M293.8,545.7h13.3c11,0,20,9,20,20V579c0,11-9,20-20,20h-13.3c-11,0-20-9-20-20v-13.3
			C273.8,554.7,282.8,545.7,293.8,545.7z"/>
		<path class="st11" d="M112.1,130H98.8c-11,0-20-9-20-20V96.7c0-11,9-20,20-20h13.3c11,0,20,9,20,20V110
			C132.1,121,123.1,130,112.1,130z"/>
	</g>
</g>
<g class="st1">
	<rect x="769.4" y="489.4" class="st3" width="240" height="155.2"/>
	<rect x="821.4" y="489.4" class="st3" width="22.8" height="134.1"/>
	<rect x="932.3" y="489.4" class="st3" width="22.8" height="134.1"/>
	<polygon class="st3" points="889.4,488.7 713.2,488.7 801.3,445.8 889.4,402.9 977.5,445.8 1065.7,488.7 	"/>
	<polygon class="st3" points="889.4,488.7 789.4,488.7 839.4,445.8 889.4,402.9 939.4,445.8 989.4,488.7 	"/>
	<polygon class="st3" points="889.4,488.7 860.4,488.7 874.9,445.8 889.4,402.9 903.9,445.8 918.4,488.7 	"/>
	<rect x="769.4" y="489.4" class="st3" width="240" height="134.1"/>
	<rect x="594.2" y="534" class="st3" width="175.2" height="110.6"/>
	<rect x="594.2" y="560.1" class="st3" width="175.2" height="84.5"/>
	<rect x="594.2" y="534.1" class="st3" width="32" height="26"/>
	<rect x="736.2" y="534.1" class="st3" width="32" height="26"/>
	<rect x="642.6" y="534" class="st3" width="32" height="26"/>
	<rect x="689.2" y="534" class="st3" width="32" height="26"/>
</g>
<g class="st1">
	<path class="st12" d="M-179.5,650.7h-240.3c0-56.8,53.8-102.8,120.2-102.8C-233.3,548-179.5,594-179.5,650.7z"/>
	<path class="st13" d="M-179.5,649.7h-120.1V547C-233.3,547-179.5,593-179.5,649.7z"/>
</g>
<g class="st1">
	<path class="st12" d="M200.1,648.4H0c0-35.7,44.8-64.6,100.1-64.6C155.3,583.8,200.1,612.7,200.1,648.4z"/>
	<path class="st13" d="M200.1,647.8h-100v-64.6C155.3,583.2,200.1,612.1,200.1,647.8z"/>
</g>
<g class="st1">
	<path class="st12" d="M711.2,648.7H529.3c0-36.8,40.7-66.6,91-66.6C670.5,582.1,711.2,611.9,711.2,648.7z"/>
	<path class="st13" d="M711.2,648.1h-90.9v-66.6C670.5,581.4,711.2,611.3,711.2,648.1z"/>
</g>
<g class="st1">
	<path class="st12" d="M1354.6,647.2h-252.3c0-51.5,56.5-93.3,126.2-93.3C1298.2,553.8,1354.6,595.6,1354.6,647.2z"/>
	<path class="st13" d="M1354.6,646.2h-126.2v-93.3C1298.2,552.9,1354.6,594.7,1354.6,646.2z"/>
</g>
<g class="st1">
	<path class="st12" d="M1145,649.3H986.4c0-37.5,35.5-67.8,79.3-67.8C1109.5,581.4,1145,611.8,1145,649.3z"/>
	<path class="st13" d="M1145,648.6h-79.3v-67.8C1109.5,580.8,1145,611.1,1145,648.6z"/>
</g>
<rect x="-481.6" y="-429.1" class="st14" width="69" height="69"/>
<rect x="-481.6" y="-333.7" class="st15" width="66.7" height="66.7"/>
<rect x="-480.5" y="-240.5" class="st16" width="66.7" height="66.7"/>
<rect x="-354.6" y="-429.6" class="st11" width="70.1" height="70.1"/>
<rect x="-354.6" y="-335.3" class="st17" width="70.1" height="70.1"/>
<rect x="-354.6" y="-241.1" class="st10" width="70.1" height="70.1"/>
</svg>
